<svg width="886" height="218" viewBox="0 0 886 218" fill="none" xmlns="http://www.w3.org/2000/svg">
<g clip-path="url(#clip0_1_2)">
<rect width="886" height="218" fill="white"/>
<path fill-rule="evenodd" clip-rule="evenodd" d="M94.0789 21.8C88.0473 21.8 83.1578 26.6801 83.1578 32.7V43.6H126.842V32.7C126.842 26.68 121.953 21.8 115.921 21.8H94.0789ZM148.684 43.6041V32.7C148.684 14.6404 134.016 0 115.921 0H94.0789C75.9842 0 61.3156 14.6403 61.3156 32.7V43.6041C54.7063 43.6238 48.8776 43.7348 43.9791 44.3523C37.5455 45.1634 31.3606 46.9818 26.0294 51.5966C20.6982 56.2114 18.0198 62.0651 16.3055 68.3071C14.7133 74.104 13.673 81.375 12.4755 89.745L12.3828 90.3923L2.9116 156.563C1.34823 167.481 0.0136057 176.802 0.000106375 184.303C-0.0142653 192.288 1.42296 200.142 7.14312 206.725C12.8633 213.308 20.4498 215.838 28.3721 216.954C35.814 218.001 45.2478 218.001 56.2987 218H153.702C164.753 218.001 174.186 218.001 181.628 216.954C189.55 215.838 197.137 213.308 202.857 206.725C208.577 200.142 210.014 192.288 210 184.303C209.986 176.804 208.652 167.486 207.09 156.571L206.978 155.793L206.978 155.792L197.525 89.7493C196.327 81.3774 195.287 74.105 193.694 68.307C191.98 62.065 189.301 56.2115 183.971 51.5968C178.64 46.9819 172.455 45.1634 166.021 44.3523C161.123 43.7348 155.294 43.6238 148.684 43.6041ZM126.842 65.4V98.1C126.842 104.12 131.732 109 137.763 109C143.795 109 148.684 104.12 148.684 98.1V65.4063C155.165 65.4289 159.715 65.5305 163.284 65.9804C167.422 66.5021 168.832 67.3492 169.659 68.0653C170.487 68.7817 171.526 70.0557 172.629 74.0704C173.813 78.3811 174.677 84.2704 175.994 93.4752L185.356 158.875C185.356 158.875 185.356 158.875 185.356 158.875C187.059 170.779 188.147 178.562 188.158 184.343C188.168 189.814 187.168 191.508 186.356 192.441C185.544 193.376 184.006 194.603 178.578 195.367C172.844 196.174 164.97 196.2 152.922 196.2H57.0786C45.0304 196.2 37.1566 196.174 31.4222 195.367C25.9938 194.603 24.4555 193.376 23.644 192.442C22.8325 191.508 21.8324 189.814 21.8423 184.342C21.8527 178.563 22.9407 170.779 24.6446 158.875L34.0055 93.4754C35.3231 84.2703 36.1866 78.3811 37.3705 74.0703C38.4732 70.0556 39.5129 68.7818 40.3404 68.0655C41.1679 67.3492 42.5784 66.5021 46.7164 65.9804C50.2853 65.5305 54.8351 65.4289 61.3156 65.4063V98.1C61.3156 104.12 66.2051 109 72.2367 109C78.2682 109 83.1578 104.12 83.1578 98.1V65.4H126.842Z" fill="#10B981"/>
<path d="M303.136 150.536C297.163 150.536 291.531 149.469 286.24 147.336C281.035 145.117 276.512 142.003 272.672 137.992C268.917 133.981 266.101 129.245 264.224 123.784L280.48 116.488C282.869 121.693 286.155 125.789 290.336 128.776C294.603 131.763 299.296 133.256 304.416 133.256C307.147 133.256 309.493 132.829 311.456 131.976C313.419 131.123 314.955 129.971 316.064 128.52C317.173 126.984 317.728 125.192 317.728 123.144C317.728 120.925 317.045 119.048 315.68 117.512C314.315 115.891 312.181 114.611 309.28 113.672L290.592 107.528C282.997 105.053 277.28 101.555 273.44 97.032C269.6 92.424 267.68 86.92 267.68 80.52C267.68 74.888 269.045 69.9387 271.776 65.672C274.592 61.4053 278.475 58.0773 283.424 55.688C288.459 53.2987 294.219 52.104 300.704 52.104C306.421 52.104 311.712 53.0853 316.576 55.048C321.44 57.0107 325.621 59.784 329.12 63.368C332.704 66.952 335.392 71.2613 337.184 76.296L321.056 83.592C319.264 79.1547 316.576 75.6987 312.992 73.224C309.408 70.664 305.312 69.384 300.704 69.384C298.059 69.384 295.712 69.8107 293.664 70.664C291.616 71.5173 290.037 72.7547 288.928 74.376C287.819 75.912 287.264 77.704 287.264 79.752C287.264 81.9707 287.989 83.9333 289.44 85.64C290.891 87.2613 293.067 88.5413 295.968 89.48L314.272 95.368C321.952 97.8427 327.669 101.299 331.424 105.736C335.264 110.173 337.184 115.592 337.184 121.992C337.184 127.539 335.733 132.488 332.832 136.84C329.931 141.107 325.92 144.477 320.8 146.952C315.765 149.341 309.877 150.536 303.136 150.536ZM349.915 149V79.112H367.835V96.136L365.915 93.32C366.939 87.944 369.414 83.976 373.339 81.416C377.264 78.856 381.958 77.576 387.419 77.576C393.222 77.576 398.299 79.0693 402.651 82.056C407.088 84.9573 409.862 88.8827 410.971 93.832L405.467 94.344C407.771 88.6267 411.056 84.4027 415.323 81.672C419.59 78.9413 424.582 77.576 430.299 77.576C435.334 77.576 439.771 78.6853 443.611 80.904C447.536 83.1227 450.608 86.2373 452.827 90.248C455.046 94.1733 456.155 98.7813 456.155 104.072V149H436.955V108.168C436.955 105.437 436.443 103.091 435.419 101.128C434.48 99.1653 433.115 97.6293 431.323 96.52C429.531 95.4107 427.355 94.856 424.795 94.856C422.32 94.856 420.144 95.4107 418.267 96.52C416.475 97.6293 415.067 99.1653 414.043 101.128C413.104 103.091 412.635 105.437 412.635 108.168V149H393.435V108.168C393.435 105.437 392.923 103.091 391.899 101.128C390.96 99.1653 389.595 97.6293 387.803 96.52C386.011 95.4107 383.835 94.856 381.275 94.856C378.8 94.856 376.624 95.4107 374.747 96.52C372.955 97.6293 371.547 99.1653 370.523 101.128C369.584 103.091 369.115 105.437 369.115 108.168V149H349.915ZM490.422 150.536C485.387 150.536 481.035 149.725 477.366 148.104C473.697 146.483 470.881 144.179 468.918 141.192C466.955 138.12 465.974 134.493 465.974 130.312C465.974 126.387 466.87 122.931 468.662 119.944C470.454 116.872 473.185 114.312 476.854 112.264C480.609 110.216 485.259 108.765 490.806 107.912L512.182 104.456V118.536L494.262 121.736C491.531 122.248 489.441 123.144 487.99 124.424C486.539 125.619 485.814 127.368 485.814 129.672C485.814 131.805 486.625 133.469 488.246 134.664C489.867 135.859 491.873 136.456 494.262 136.456C497.419 136.456 500.193 135.773 502.582 134.408C504.971 133.043 506.806 131.208 508.086 128.904C509.451 126.515 510.134 123.912 510.134 121.096V102.92C510.134 100.275 509.067 98.056 506.934 96.264C504.886 94.472 502.07 93.576 498.486 93.576C495.073 93.576 492.043 94.5147 489.398 96.392C486.838 98.2693 484.961 100.744 483.766 103.816L468.406 96.52C469.771 92.5947 471.947 89.224 474.934 86.408C477.921 83.592 481.505 81.416 485.686 79.88C489.867 78.344 494.433 77.576 499.382 77.576C505.27 77.576 510.475 78.6427 514.998 80.776C519.521 82.9093 523.019 85.896 525.494 89.736C528.054 93.4907 529.334 97.8853 529.334 102.92V149H511.414V137.736L515.766 136.968C513.718 140.04 511.457 142.6 508.982 144.648C506.507 146.611 503.734 148.061 500.662 149C497.59 150.024 494.177 150.536 490.422 150.536ZM543.415 149V79.112H561.335V95.88L560.055 93.448C561.591 87.56 564.108 83.592 567.607 81.544C571.191 79.4107 575.415 78.344 580.279 78.344H584.375V94.984H578.359C573.666 94.984 569.868 96.4347 566.967 99.336C564.066 102.152 562.615 106.163 562.615 111.368V149H543.415ZM628.954 149.768C620.506 149.768 613.935 147.507 609.242 142.984C604.634 138.376 602.33 131.976 602.33 123.784V95.752H590.554V79.112H591.194C594.778 79.112 597.509 78.216 599.386 76.424C601.349 74.632 602.33 71.944 602.33 68.36V63.24H621.53V79.112H637.914V95.752H621.53V122.504C621.53 124.893 621.957 126.899 622.81 128.52C623.663 130.056 624.986 131.208 626.778 131.976C628.57 132.744 630.789 133.128 633.434 133.128C634.031 133.128 634.714 133.085 635.482 133C636.25 132.915 637.061 132.829 637.914 132.744V149C636.634 149.171 635.183 149.341 633.562 149.512C631.941 149.683 630.405 149.768 628.954 149.768ZM650.573 149V53.64H690.893C697.464 53.64 703.096 54.7493 707.789 56.968C712.482 59.1867 716.066 62.3867 718.541 66.568C721.016 70.664 722.253 75.656 722.253 81.544C722.253 85.7253 721.101 89.736 718.797 93.576C716.493 97.3307 712.696 100.488 707.405 103.048V93.32C712.44 95.2827 716.322 97.6293 719.053 100.36C721.784 103.091 723.661 106.077 724.685 109.32C725.709 112.477 726.221 115.805 726.221 119.304C726.221 128.691 723.106 135.987 716.877 141.192C710.648 146.397 701.986 149 690.893 149H650.573ZM670.413 131.72H693.197C697.208 131.72 700.408 130.568 702.797 128.264C705.186 125.96 706.381 122.973 706.381 119.304C706.381 115.549 705.186 112.52 702.797 110.216C700.408 107.912 697.208 106.76 693.197 106.76H670.413V131.72ZM670.413 89.48H692.301C695.373 89.48 697.805 88.6267 699.597 86.92C701.474 85.128 702.413 82.7813 702.413 79.88C702.413 76.9787 701.474 74.6747 699.597 72.968C697.805 71.176 695.373 70.28 692.301 70.28H670.413V89.48ZM762.628 150.536C756.996 150.536 752.175 149.341 748.164 146.952C744.239 144.477 741.252 141.064 739.204 136.712C737.156 132.36 736.132 127.283 736.132 121.48V79.112H755.332V119.944C755.332 122.589 755.844 124.936 756.868 126.984C757.977 128.947 759.513 130.483 761.476 131.592C763.439 132.701 765.657 133.256 768.132 133.256C770.692 133.256 772.911 132.701 774.788 131.592C776.751 130.483 778.244 128.947 779.268 126.984C780.377 124.936 780.932 122.589 780.932 119.944V79.112H800.132V149H782.212V135.176L783.236 138.248C781.615 142.429 778.969 145.544 775.3 147.592C771.716 149.555 767.492 150.536 762.628 150.536ZM825.045 177.416C822.997 177.416 820.992 177.245 819.029 176.904C817.152 176.563 815.488 176.008 814.037 175.24V159.496C815.232 159.837 816.64 160.136 818.261 160.392C819.882 160.648 821.376 160.776 822.741 160.776C826.496 160.776 829.184 159.88 830.805 158.088C832.426 156.296 833.749 154.248 834.773 151.944L839.509 141.064L839.253 157.064L808.533 79.112H829.141L849.493 134.536H841.813L862.165 79.112H882.773L852.821 155.528C850.944 160.392 848.64 164.445 845.909 167.688C843.178 170.931 840.064 173.363 836.565 174.984C833.152 176.605 829.312 177.416 825.045 177.416Z" fill="#10B981"/>
</g>
<defs>
<clipPath id="clip0_1_2">
<rect width="886" height="218" fill="white"/>
</clipPath>
</defs>
</svg>
